<svg id="Capa_1" data-name="Capa 1" xmlns="http://www.w3.org/2000/svg" viewBox="0 0 108.98 92.97"><defs><style>.cls-1{fill:#5a666e;}.cls-2{fill:#961f5f;}</style></defs><title>LOGO</title><path class="cls-1" d="M2.73,87.78a1.42,1.42,0,0,1-.59-1.18,1.5,1.5,0,0,1,1.5-1.53,1.36,1.36,0,0,1,.94.35,12.49,12.49,0,0,0,8.68,3.26c3.69,0,6.12-2,6.12-4.68v-.07c0-2.56-1.37-4-7.14-5.23C5.91,77.33,3,75.29,3,70.77v-.08c0-4.32,3.81-7.5,9-7.5A14,14,0,0,1,20.8,65.9a1.61,1.61,0,0,1,.67,1.26A1.5,1.5,0,0,1,20,68.65a1.44,1.44,0,0,1-.9-.28A11.5,11.5,0,0,0,12,66c-3.57,0-5.85,2-5.85,4.44v.07c0,2.6,1.41,4.05,7.46,5.35s9,3.57,9,7.77v.08c0,4.71-3.93,7.78-9.39,7.78A16.1,16.1,0,0,1,2.73,87.78Z"/><path class="cls-2" d="M44.09,80.27,33.87,66a2.09,2.09,0,0,1-.35-1.06,1.61,1.61,0,0,1,1.61-1.54,1.81,1.81,0,0,1,1.49.95L45.7,77.41l9.15-13.08a1.75,1.75,0,0,1,1.45-.95,1.53,1.53,0,0,1,1.53,1.54,2.38,2.38,0,0,1-.43,1.14L47.23,80.19V89.7a1.57,1.57,0,1,1-3.14,0Z"/><path class="cls-1" d="M71.3,65a1.55,1.55,0,1,1,3.1,0V88.21H88.66a1.43,1.43,0,0,1,1.41,1.45,1.4,1.4,0,0,1-1.41,1.41H72.83A1.56,1.56,0,0,1,71.3,89.5Z"/><path class="cls-1" d="M103.74,65a1.55,1.55,0,1,1,3.1,0V89.7a1.55,1.55,0,1,1-3.1,0Z"/><path class="cls-1" d="M64.51,57.47a.61.61,0,0,1-.61-.61.61.61,0,0,1,.61-.62,7.71,7.71,0,0,0,5.8-2.6c6.63-7,6-25.93,6-26.12-.87-13-12.48-13.17-13-13.17h-12v8.38c0,3.75.93,6.46,2.85,8.28,3.63,3.46,10.28,3.14,16.16,2.85,1.59-.07,3.09-.15,4.51-.15a.62.62,0,0,1,0,1.24c-1.39,0-2.88.07-4.45.14-6.12.3-13.06.64-17.07-3.18-2.18-2.08-3.23-5.08-3.23-9.18v-9a.61.61,0,0,1,.61-.62H63.31c.14,0,13.3.16,14.24,14.32,0,.19.7,19.52-6.32,27A8.92,8.92,0,0,1,64.51,57.47Z"/><path class="cls-1" d="M49.16,57.47A20.38,20.38,0,1,1,69.54,37.09,20.4,20.4,0,0,1,49.16,57.47Zm0-39.52A19.15,19.15,0,1,0,68.3,37.09,19.17,19.17,0,0,0,49.16,18Z"/><circle class="cls-1" cx="71.46" cy="27.48" r="1.56"/><path class="cls-1" d="M64.51,57.47A8.51,8.51,0,1,1,73,49,8.51,8.51,0,0,1,64.51,57.47Zm0-15.78A7.28,7.28,0,1,0,71.79,49,7.29,7.29,0,0,0,64.51,41.69Z"/><path class="cls-2" d="M29.33,61.37a.65.65,0,0,1-.43-.17A34.79,34.79,0,1,1,78.63,60a.61.61,0,0,1-.87,0,.62.62,0,0,1,0-.87,33.54,33.54,0,1,0-48,1.17.62.62,0,0,1,0,.87A.63.63,0,0,1,29.33,61.37Z"/></svg>